PathFileType	4	(X/Y/Z)	/Users/itak/Documents/Research/Walk-IL/dataset/trc/00212_00009.trc
DataRate	CameraRate	NumFrames	NumMarkers	Units	OrigDataRate	OrigDataStartFrame	OrigNumFrames
100.000000	100.000000	4	53	mm	100.000000	403	538
Frame#	Time	RPSI			LPSI			L3			STRN			T10			C7			CLAV			RBAK			LBAK			LSHO			LUPA			LAEL			LAOL			LWTS			LWPS			LFRA			LIFD			LHPS			RSHO			RUPA			RAEL			RAOL			RWTS			RWPS			RFRA			RIFD			RHTS			RHPS			RBHD			LFHD			RFHD			LBHD			LHIP			RHIP			RASI			LASI			LKNE			LTHI			LANK			LTIP			LTOE			LMT1			LMT5			LHEE			RKNE			RTHI			RANK			RTIP			RTOE			RMT1			RMT5			RHEE			LHTS			
		X1	Y1	Z1	X2	Y2	Z2	X3	Y3	Z3	X4	Y4	Z4	X5	Y5	Z5	X6	Y6	Z6	X7	Y7	Z7	X8	Y8	Z8	X9	Y9	Z9	X10	Y10	Z10	X11	Y11	Z11	X12	Y12	Z12	X13	Y13	Z13	X14	Y14	Z14	X15	Y15	Z15	X16	Y16	Z16	X17	Y17	Z17	X18	Y18	Z18	X19	Y19	Z19	X20	Y20	Z20	X21	Y21	Z21	X22	Y22	Z22	X23	Y23	Z23	X24	Y24	Z24	X25	Y25	Z25	X26	Y26	Z26	X27	Y27	Z27	X28	Y28	Z28	X29	Y29	Z29	X30	Y30	Z30	X31	Y31	Z31	X32	Y32	Z32	X33	Y33	Z33	X34	Y34	Z34	X35	Y35	Z35	X36	Y36	Z36	X37	Y37	Z37	X38	Y38	Z38	X39	Y39	Z39	X40	Y40	Z40	X41	Y41	Z41	X42	Y42	Z42	X43	Y43	Z43	X44	Y44	Z44	X45	Y45	Z45	X46	Y46	Z46	X47	Y47	Z47	X48	Y48	Z48	X49	Y49	Z49	X50	Y50	Z50	X51	Y51	Z51	X52	Y52	Z52	X53	Y53	Z53	

404	4.03	587.0458984375	1021.877685546875	-186.2829895019531	577.6483764648438	1026.73828125	-305.7485656738281	579.54443359375	1106.400024414062	-265.7214050292969	816.1592407226562	1305.203491210938	-268.7822265625	567.672119140625	1233.081665039062	-260.5906066894531	614.305908203125	1497.175415039062	-258.0199279785156	785.3493041992188	1421.526977539062	-261.3855895996094	546.615966796875	1351.9140625	-188.9806518554688	593.677734375	1463.036743164062	-368.355712890625	682.2980346679688	1471.8935546875	-426.47998046875	652.86083984375	1352.511352539062	-504.212646484375	670.058349609375	1143.376342773438	-531.7545166015625	599.082763671875	1125.509887695312	-482.1193237304688	773.7853393554688	917.1693725585938	-475.1747436523438	749.046142578125	898.395751953125	-552.8390502929688	696.5106811523438	1037.340454101562	-545.7168579101562	798.6619262695312	721.7638549804688	-485.5454711914062	773.6598510742188	812.3403930664062	-549.435302734375	674.7562255859375	1457.107788085938	-90.54180908203125	653.9833374023438	1392.105224609375	-25.19607162475586	620.7960815429688	1114.234008789062	15.21342086791992	595.539794921875	1107.889404296875	-75.68358612060547	767.6390380859375	906.5795288085938	-22.38116645812988	711.5524291992188	887.5012817382812	37.30157089233398	648.3108520507812	1045.958862304688	28.75355911254883	794.3767700195312	712.3301391601562	-26.17696380615234	810.9395751953125	786.71875	-5.033341407775879	753.37646484375	782.752685546875	38.93836212158203	643.0105590820312	1644.601684570312	-197.5101928710938	832.2882080078125	1712.387084960938	-303.7572326660156	839.0556640625	1707.558715820312	-204.0660095214844	677.44921875	1661.713500976562	-332.2011108398438	664.853759765625	966.6145629882812	-454.8707580566406	698.7847290039062	988.2566528320312	-89.81008148193359	786.1702880859375	1031.206787109375	-136.0688171386719	771.0711059570312	1018.853759765625	-418.1980590820312	743.8923950195312	483.2614135742188	-448.4346923828125	728.4345703125	628.0369873046875	-461.2984008789062	354.43115234375	201.3014984130859	-377.2713623046875	560.8020629882812	348.1763610839844	-423.2388305664062	503.4877014160156	45.39474868774414	-394.1337280273438	468.1536254882812	80.97314453125	-332.8334045410156	420.8158569335938	109.4492797851562	-432.4706420898438	340.5824279785156	243.6885833740234	-311.8009643554688	854.7479858398438	520.4254150390625	-133.1100158691406	798.7670288085938	780.9000854492188	-89.30896759033203	831.100341796875	28.15179252624512	-154.1992492675781	880.3065185546875	399.51708984375	-151.4696197509766	1042.267578125	34.13175964355469	-197.4937438964844	986.247802734375	35.28879165649414	-238.7377014160156	939.1434326171875	26.5620059967041	-126.5636901855469	768.3997802734375	30.90627288818359	-213.1928558349609	815.5765380859375	819.7274780273438	-495.9405212402344	
405	4.04	594.1453247070312	1023.632080078125	-185.3458404541016	584.6776733398438	1028.59326171875	-304.822265625	586.9190673828125	1108.356567382812	-264.3211364746094	824.0968017578125	1306.429931640625	-268.031982421875	575.4491577148438	1235.128173828125	-258.7245483398438	622.9889526367188	1499.040283203125	-256.2759094238281	793.5958251953125	1422.811767578125	-260.52587890625	555.0765380859375	1354.044311523438	-186.8373565673828	601.5699462890625	1464.87890625	-366.2756042480469	689.8356323242188	1473.548828125	-425.1587829589844	658.57177734375	1354.35302734375	-502.6065979003906	672.4175415039062	1145.115844726562	-530.246826171875	602.1852416992188	1128.304809570312	-479.3003540039062	772.0875854492188	916.1060791015625	-476.6923828125	745.265380859375	898.3728637695312	-553.9237670898438	696.3389892578125	1038.622192382812	-545.1452026367188	791.6007690429688	720.0643920898438	-488.41748046875	767.6351318359375	811.6212768554688	-551.3392333984375	684.017333984375	1458.867553710938	-89.12342834472656	663.386962890625	1393.994995117188	-23.61056709289551	630.3892211914062	1116.045654296875	17.41719627380371	604.8713989257812	1109.5	-73.43557739257812	780.8543090820312	911.3158569335938	-20.94588661193848	724.7243041992188	890.515625	38.27125930786133	658.8956298828125	1047.981689453125	30.78486061096191	812.99658203125	717.9660034179688	-25.24272537231445	827.2631225585938	792.7100219726562	-3.581943035125732	769.33251953125	786.9224243164062	39.7878303527832	651.7975463867188	1646.171752929688	-196.1442413330078	841.07861328125	1713.906005859375	-302.5137634277344	847.8948974609375	1709.010620117188	-202.8373260498047	686.2093505859375	1663.308349609375	-330.9201965332031	672.2131958007812	968.686767578125	-453.9258422851562	705.3876342773438	989.40185546875	-88.83583831787109	793.1513671875	1032.328491210938	-134.8518218994141	778.2659301757812	1020.657043457031	-417.05419921875	759.2261352539062	485.8025512695312	-447.2494201660156	741.0396728515625	630.4014282226562	-460.2225341796875	373.9107666015625	198.3360748291016	-374.443115234375	577.9473266601562	348.5991821289062	-421.2839050292969	526.752685546875	46.42549896240234	-391.709716796875	490.874755859375	81.37635803222656	-330.3194580078125	442.5565795898438	108.3720245361328	-429.7689514160156	359.0941772460938	240.3966217041016	-308.9441833496094	857.6464233398438	520.233642578125	-132.9789428710938	804.056884765625	781.2992553710938	-88.98829650878906	831.2813110351562	28.40740203857422	-154.5081634521484	882.333984375	399.2554626464844	-151.4760284423828	1042.43603515625	33.87621307373047	-197.3967895507812	986.416748046875	35.19515228271484	-238.8707275390625	939.2097778320312	26.6801643371582	-126.6584243774414	768.4736938476562	31.12095642089844	-213.4967041015625	810.8952026367188	817.6984252929688	-498.7448120117188	
406	4.05	600.9780883789062	1025.218627929688	-184.5859985351562	591.4953002929688	1030.274047851562	-304.0686950683594	594.0435180664062	1110.190307617188	-263.0563049316406	831.83837890625	1307.52294921875	-267.3331909179688	582.9842529296875	1237.067504882812	-256.9097290039062	631.5086059570312	1500.787963867188	-254.5805206298828	801.655517578125	1423.966552734375	-259.7460327148438	563.38525390625	1356.084106445312	-184.6818084716797	609.234130859375	1466.570190429688	-364.2215270996094	697.139892578125	1475.033203125	-423.8795471191406	664.0691528320312	1356.060302734375	-501.0449523925781	674.6679077148438	1146.804077148438	-528.87255859375	605.24658203125	1130.94384765625	-476.6219787597656	770.4317626953125	915.1966552734375	-478.3309020996094	741.591796875	898.5613403320312	-555.0977783203125	696.1747436523438	1039.95458984375	-544.6819458007812	784.83203125	718.727783203125	-491.4081115722656	761.80908203125	811.2144165039062	-553.3287963867188	693.1649780273438	1460.533203125	-87.76395416259766	672.70751953125	1395.793212890625	-22.07224082946777	639.9147338867188	1117.776733398438	19.61248397827148	614.0716552734375	1111.029663085938	-71.18624114990234	793.8831787109375	916.0079956054688	-19.61268615722656	737.80126953125	893.535888671875	39.19073486328125	669.419677734375	1049.948486328125	32.79311752319336	831.1493530273438	723.6466064453125	-24.44208908081055	843.2454833984375	798.6631469726562	-2.295137643814087	785.0735473632812	791.1253662109375	40.55624771118164	660.451171875	1647.656372070312	-194.8767242431641	849.7386474609375	1715.248779296875	-301.4205017089844	856.6121826171875	1710.318481445312	-201.7589874267578	694.8199462890625	1664.75390625	-329.7553405761719	679.538330078125	970.6371459960938	-453.0873413085938	711.6296997070312	990.4331665039062	-87.93650817871094	799.849853515625	1033.365844726562	-133.5798645019531	785.36767578125	1022.327453613281	-415.8651428222656	774.160888671875	488.338134765625	-446.0451354980469	753.427734375	632.7633666992188	-459.1964111328125	393.8621215820312	194.0457458496094	-371.9881286621094	595.0230102539062	348.4279479980469	-419.4932861328125	551.0697021484375	47.02459335327148	-388.7406616210938	514.3359375	81.26015472412109	-327.5040893554688	465.2545776367188	106.1499328613281	-426.980712890625	377.7417602539062	235.9111022949219	-306.6240234375	860.4149169921875	520.0291748046875	-132.8045043945312	809.121337890625	781.6499633789062	-88.65591430664062	831.4479370117188	28.6552734375	-154.8105010986328	884.2671508789062	399.0006103515625	-151.44140625	1042.60693359375	33.64592742919922	-197.2833099365234	986.5750122070312	35.07176208496094	-239.0017547607422	939.2791748046875	26.79870414733887	-126.7554626464844	768.5528564453125	31.35018157958984	-213.818359375	806.3421630859375	815.9790649414062	-501.660888671875	
407	4.06	607.5656127929688	1026.647705078125	-183.9875793457031	598.1162719726562	1031.780639648438	-303.4724731445312	600.919921875	1111.892456054688	-261.922119140625	839.3836669921875	1308.486938476562	-266.685302734375	590.2887573242188	1238.884521484375	-255.1555328369141	639.8464965820312	1502.40771484375	-252.9444427490234	809.5210571289062	1424.993774414062	-259.0431213378906	571.5258178710938	1358.012451171875	-182.5375671386719	616.6726684570312	1468.105346679688	-362.2100219726562	704.212646484375	1476.344482421875	-422.6466369628906	669.3734130859375	1357.6259765625	-499.5336608886719	676.8400268554688	1148.425903320312	-527.6283569335938	608.2811889648438	1133.411499023438	-474.0925903320312	768.8532104492188	914.42529296875	-480.0791625976562	738.0645141601562	898.9269409179688	-556.3471069335938	696.0469360351562	1041.310180664062	-544.3196411132812	778.39404296875	717.7163696289062	-494.4896240234375	756.2249145507812	811.0830078125	-555.38818359375	702.1693725585938	1462.090576171875	-86.47217559814453	681.9190673828125	1397.484130859375	-20.5905647277832	649.3798828125	1119.412109375	21.80175399780273	623.1402587890625	1112.455200195312	-68.9288330078125	806.7059326171875	920.6182250976562	-18.39111518859863	750.7766723632812	896.53759765625	40.06596755981445	679.8872680664062	1051.843627929688	34.78033447265625	848.7830200195312	729.31396484375	-23.80576324462891	858.8573608398438	804.5245971679688	-1.202125787734985	800.5757446289062	795.3202514648438	41.23066711425781	668.9598999023438	1649.054565429688	-193.7060394287109	858.2593994140625	1716.414794921875	-300.4676818847656	865.1959838867188	1711.476806640625	-200.8187255859375	703.2715454101562	1666.0546875	-328.6995239257812	686.8065185546875	972.4340209960938	-452.3389587402344	717.5537719726562	991.3697509765625	-87.10251617431641	806.291259765625	1034.322998046875	-132.2624359130859	792.3841552734375	1023.866516113281	-414.6448669433594	788.646240234375	490.8314208984375	-444.8371887207031	765.5623168945312	635.0850830078125	-458.2225952148438	414.1983947753906	188.5785064697266	-369.9219970703125	611.962890625	347.6996154785156	-417.8889770507812	576.2030639648438	47.22533798217773	-385.3970336914062	538.3473510742188	80.65827178955078	-324.5077514648438	488.7013854980469	102.9144973754883	-424.1859741210938	396.49755859375	230.340087890625	-304.8330078125	863.057861328125	519.8135375976562	-132.5842895507812	813.9795532226562	781.9569702148438	-88.29978179931641	831.5891723632812	28.88876914978027	-155.1035003662109	886.1121826171875	398.7508850097656	-151.3610992431641	1042.776000976562	33.45151138305664	-197.1653747558594	986.7188110351562	34.92353439331055	-239.1246032714844	939.3491821289062	26.91598129272461	-126.8526916503906	768.6319580078125	31.5850715637207	-214.1461486816406	801.9560546875	814.53564453125	-504.6652526855469	
